<svg xmlns="http://www.w3.org/2000/svg" viewBox="0 0 548 632" width="548" height="632">
  <defs>
    
    <filter id="nodeShadow" x="-40%" y="-40%" width="180%" height="180%">
      <feDropShadow dx="0" dy="3" stdDeviation="4" flood-color="#05070c" flood-opacity="0.55"></feDropShadow>
    </filter>
  </defs>
  <polygon points="274,16 533.81,166 533.81,466 274,616 14.19,466 14.19,166" fill="#2B313C" stroke="#8A9BB2" stroke-width="24" stroke-linejoin="round"></polygon>
  <polygon points="274,16 533.81,166 533.81,466 274,616 14.19,466 14.19,166" fill="none" stroke="#BCC8DA" stroke-width="4" stroke-linejoin="round" transform="translate(274 316) scale(0.905) translate(-274 -316)"></polygon>
  <line x1="274" y1="150" x2="204" y2="232" stroke="#9FC1E8" stroke-width="4.5" stroke-linecap="round" opacity="0.5"></line><line x1="274" y1="150" x2="344" y2="232" stroke="#9FC1E8" stroke-width="4.5" stroke-linecap="round" opacity="0.5"></line><line x1="204" y1="232" x2="166" y2="314" stroke="#9FC1E8" stroke-width="4.5" stroke-linecap="round" opacity="0.5"></line><line x1="204" y1="232" x2="274" y2="314" stroke="#9FC1E8" stroke-width="4.5" stroke-linecap="round" opacity="0.5"></line><line x1="344" y1="232" x2="274" y2="314" stroke="#9FC1E8" stroke-width="4.5" stroke-linecap="round" opacity="0.5"></line><line x1="344" y1="232" x2="382" y2="314" stroke="#9FC1E8" stroke-width="4.5" stroke-linecap="round" opacity="0.5"></line><line x1="166" y1="314" x2="136" y2="396" stroke="#9FC1E8" stroke-width="4.5" stroke-linecap="round" opacity="0.5"></line><line x1="166" y1="314" x2="228" y2="396" stroke="#9FC1E8" stroke-width="4.5" stroke-linecap="round" opacity="0.5"></line><line x1="274" y1="314" x2="228" y2="396" stroke="#9FC1E8" stroke-width="4.5" stroke-linecap="round" opacity="0.5"></line><line x1="274" y1="314" x2="320" y2="396" stroke="#9FC1E8" stroke-width="4.5" stroke-linecap="round" opacity="0.5"></line><line x1="382" y1="314" x2="320" y2="396" stroke="#9FC1E8" stroke-width="4.5" stroke-linecap="round" opacity="0.5"></line><line x1="382" y1="314" x2="412" y2="396" stroke="#9FC1E8" stroke-width="4.5" stroke-linecap="round" opacity="0.5"></line>
  <g filter="url(#nodeShadow)"><circle cx="274" cy="150" r="15" fill="#FFFFFF"></circle><circle cx="204" cy="232" r="15" fill="#FFFFFF"></circle><circle cx="344" cy="232" r="15" fill="#FFFFFF"></circle><circle cx="166" cy="314" r="15" fill="#FFFFFF"></circle><circle cx="274" cy="314" r="15" fill="#FFFFFF"></circle><circle cx="382" cy="314" r="15" fill="#FFFFFF"></circle><circle cx="136" cy="396" r="15" fill="#FFFFFF"></circle><circle cx="228" cy="396" r="15" fill="#FFFFFF"></circle><circle cx="320" cy="396" r="15" fill="#FFFFFF"></circle><circle cx="412" cy="396" r="15" fill="#FFFFFF"></circle></g>
  <text x="274" y="486" text-anchor="middle" font-family="&#39;JetBrains Mono&#39;,monospace" font-weight="500" font-size="42" letter-spacing="-0.5" fill="#CAD6E6">ackwards</text>
</svg>